name D:\school\WTK\thesis\model\3dpredictsim\Results\PredSim_adaptations\Pog_s1_tmt_unlocked_d05_k800_exo_no_ig21.mot
datacolumns 128
datarows 4
range 0.53743631 0.56968249
endheader
time	pelvis_tilt	pelvis_list	pelvis_rotation	pelvis_tx	pelvis_ty	pelvis_tz	hip_flexion_l	hip_adduction_l	hip_rotation_l	hip_flexion_r	hip_adduction_r	hip_rotation_r	knee_angle_l	knee_angle_r	ankle_angle_l	ankle_angle_r	subtalar_angle_l	subtalar_angle_r	tmt_angle_l	tmt_angle_r	mtp_angle_l	mtp_angle_r	lumbar_extension	lumbar_bending	lumbar_rotation	arm_flex_l	arm_add_l	arm_rot_l	arm_flex_r	arm_add_r	arm_rot_r	elbow_flex_l	elbow_flex_r	pro_sup_l	pro_sup_r	glut_med1_l/activation	glut_med2_l/activation	glut_med3_l/activation	glut_min1_l/activation	glut_min2_l/activation	glut_min3_l/activation	semimem_l/activation	semiten_l/activation	bifemlh_l/activation	bifemsh_l/activation	sar_l/activation	add_long_l/activation	add_brev_l/activation	add_mag1_l/activation	add_mag2_l/activation	add_mag3_l/activation	tfl_l/activation	pect_l/activation	grac_l/activation	glut_max1_l/activation	glut_max2_l/activation	glut_max3_l/activation	iliacus_l/activation	psoas_l/activation	quad_fem_l/activation	gem_l/activation	peri_l/activation	rect_fem_l/activation	vas_med_l/activation	vas_int_l/activation	vas_lat_l/activation	med_gas_l/activation	lat_gas_l/activation	soleus_l/activation	tib_post_l/activation	flex_dig_l/activation	flex_hal_l/activation	tib_ant_l/activation	per_brev_l/activation	per_long_l/activation	per_tert_l/activation	ext_dig_l/activation	ext_hal_l/activation	ercspn_l/activation	intobl_l/activation	extobl_l/activation	glut_med1_r/activation	glut_med2_r/activation	glut_med3_r/activation	glut_min1_r/activation	glut_min2_r/activation	glut_min3_r/activation	semimem_r/activation	semiten_r/activation	bifemlh_r/activation	bifemsh_r/activation	sar_r/activation	add_long_r/activation	add_brev_r/activation	add_mag1_r/activation	add_mag2_r/activation	add_mag3_r/activation	tfl_r/activation	pect_r/activation	grac_r/activation	glut_max1_r/activation	glut_max2_r/activation	glut_max3_r/activation	iliacus_r/activation	psoas_r/activation	quad_fem_r/activation	gem_r/activation	peri_r/activation	rect_fem_r/activation	vas_med_r/activation	vas_int_r/activation	vas_lat_r/activation	med_gas_r/activation	lat_gas_r/activation	soleus_r/activation	tib_post_r/activation	flex_dig_r/activation	flex_hal_r/activation	tib_ant_r/activation	per_brev_r/activation	per_long_r/activation	per_tert_r/activation	ext_dig_r/activation	ext_hal_r/activation	ercspn_r/activation	intobl_r/activation	extobl_r/activation	
          0.53743631	         -2.92962550	          2.19529707	         -5.32881951	          0.67179539	          0.85852035	          0.00235416	         31.65930887	          3.07426611	         -1.88095186	        -18.11681826	         -1.62107318	          7.13061475	        -14.68522216	         -6.04554765	          7.38811585	          1.35116362	         -2.95398580	          9.65301145	          0.04344022	          1.27521948	         -0.12662830	         20.49675435	         -1.97737249	         -0.55091925	          1.92183290	         -7.82535823	        -13.49456501	         10.39968225	          8.70665105	        -13.45366088	         18.84668134	         12.09650009	         32.80356979	         86.51662706	         86.51662706	          0.05000057	          0.05000013	          0.05895690	          0.05000009	          0.05000012	          0.05000059	          0.05895732	          0.05895734	          0.20842382	          0.05000028	          0.05000073	          0.11096548	          0.16125634	          0.19114948	          0.15922463	          0.11145098	          0.05895752	          0.05003067	          0.05896170	          0.05897037	          0.06951886	          0.10251958	          0.05000008	          0.05000011	          0.17305646	          0.05000084	          0.05000023	          0.05000015	          0.09752758	          0.10021669	          0.08615483	          0.05772939	          0.05000169	          0.05895724	          0.05000004	          0.05000074	          0.05000137	          0.49288586	          0.37385544	          0.21623579	          0.27917077	          0.53811707	          0.26980192	          0.07215974	          0.11068622	          0.11397436	          0.32583671	          0.11397361	          0.08197313	          0.33177361	          0.22124168	          0.11397453	          0.05000067	          0.05000012	          0.05000008	          0.07657380	          0.11397537	          0.05000009	          0.05000008	          0.05000010	          0.05000026	          0.05000021	          0.32805297	          0.05000039	          0.05000024	          0.05000685	          0.05000213	          0.05000062	          0.38626102	          0.63716733	          0.05000011	          0.05000038	          0.05356469	          0.20094208	          0.05000121	          0.05000061	          0.05000063	          0.33188620	          0.44635885	          0.31490855	          0.27472347	          0.29116467	          0.38521907	          0.05000002	          0.05932461	          0.15888163	          0.05000015	          0.05000004	          0.05000013	          0.05000001	          0.05000000	          0.05000001	
          0.54818504	         -2.92497686	          2.29045729	         -5.62112224	          0.68778696	          0.85744770	          0.00215738	         31.08199636	          3.43991332	         -1.68530694	        -17.98651826	         -1.92114764	          6.90678269	        -14.59148300	         -7.97818010	          6.81568665	          0.62519539	         -3.43287689	         10.60771349	          0.05225508	          1.23330107	         -0.10743970	         21.61291891	         -1.79071564	         -0.77224027	          1.99652210	         -8.85410654	        -13.48789631	         10.29176290	          8.57427853	        -13.46362047	         18.99778527	         11.96248807	         33.93887207	         86.51662706	         86.51662706	          0.06285450	          0.05666887	          0.05000008	          0.05895763	          0.05895718	          0.05000045	          0.05000007	          0.05000019	          0.17790124	          0.05000025	          0.05000112	          0.09410804	          0.13675719	          0.23678593	          0.17657062	          0.09915670	          0.05000030	          0.05000242	          0.05000403	          0.05001173	          0.05895715	          0.11688416	          0.05269715	          0.06421115	          0.51825626	          0.13437363	          0.08798589	          0.06951933	          0.18812216	          0.19254557	          0.16635969	          0.05000000	          0.05000001	          0.05000000	          0.05000017	          0.05895750	          0.05003246	          0.54690463	          0.33246476	          0.22629275	          0.44043879	          0.57458662	          0.24666710	          0.06119665	          0.09386987	          0.09665845	          0.27633299	          0.09665782	          0.06951913	          0.28136792	          0.18762888	          0.09665862	          0.05000419	          0.05000044	          0.05000068	          0.06494010	          0.09665942	          0.12159495	          0.06430873	          0.06660179	          0.05002112	          0.06951777	          0.27821257	          0.05856831	          0.05000319	          0.05000168	          0.05000122	          0.05000160	          0.32757713	          0.56854855	          0.05000046	          0.05895014	          0.05895735	          0.17041338	          0.05000428	          0.18684751	          0.17004032	          0.28146333	          0.37854439	          0.26798365	          0.24782595	          0.24692976	          0.32669426	          0.05000002	          0.05031165	          0.15933937	          0.05000010	          0.05000002	          0.05000010	          0.05000001	          0.06951920	          0.05000002	
          0.55893377	         -2.91636904	          2.38342106	         -5.88917820	          0.70407963	          0.85639150	          0.00197146	         30.37492841	          3.74852527	         -1.42384131	        -17.78231055	         -2.21383630	          6.67063957	        -15.00728714	        -10.04182262	          6.20103761	         -0.25606443	         -3.93421883	         11.52037096	         -0.03594834	          1.16474575	         -0.15015135	         22.60876748	         -1.58164042	         -0.99817406	          2.06152593	         -9.90695443	        -13.48493570	         10.20324111	          8.35037142	        -13.47331263	         19.07246576	         11.89267793	         35.05088359	         86.51662706	         86.51662706	          0.26283553	          0.05000005	          0.29112889	          0.05000037	          0.05000012	          0.23160835	          0.07652517	          0.05000039	          0.16150938	          0.05000009	          0.05000032	          0.08197838	          0.22872201	          0.20081178	          0.14974749	          0.13242275	          0.05000035	          0.05896303	          0.12442852	          0.05000008	          0.05000009	          0.09961333	          0.05895716	          0.05446423	          0.43951855	          0.11395856	          0.15563308	          0.05895740	          0.15954114	          0.16329252	          0.14108501	          0.05961465	          0.05895993	          0.05895736	          0.05895727	          0.05000031	          0.05000033	          0.46381441	          0.34727313	          0.19191257	          0.37352387	          0.58169567	          0.20919144	          0.05189917	          0.10199823	          0.08197331	          0.35415810	          0.08197279	          0.05895725	          0.23862034	          0.15912280	          0.08197348	          0.05000148	          0.05000053	          0.05000053	          0.05507390	          0.08197429	          0.14369353	          0.12046902	          0.05895915	          0.05895780	          0.05895745	          0.23594453	          0.08639689	          0.05315160	          0.05001700	          0.05002869	          0.05895663	          0.27780902	          0.54137231	          0.05895705	          0.05000116	          0.05000014	          0.14452281	          0.09587291	          0.15846047	          0.14420686	          0.23870112	          0.32103283	          0.22726938	          0.21017426	          0.20941433	          0.27706031	          0.05000001	          0.05000023	          0.17916133	          0.05000006	          0.05000001	          0.05000008	          0.05583051	          0.05895729	          0.05000395	
          0.56968249	         -2.90543131	          2.47556015	         -6.12544504	          0.72051686	          0.85535603	          0.00177496	         29.54079871	          4.01878475	         -1.15221354	        -17.48399257	         -2.49717286	          6.42929114	        -15.44401982	        -12.25158725	          5.74736348	         -1.28772210	         -4.43019626	         12.37502833	         -0.01890506	          1.08580512	         -0.16210721	         23.41804669	         -1.36607248	         -1.22893923	          2.11750393	        -10.94282680	        -13.48564828	         10.15099412	          8.05649078	        -13.48665925	         19.08206799	         11.86056163	         36.13084925	         86.51662706	         86.51662706	          0.31817155	          0.28811841	          0.36300803	          0.17519718	          0.21241551	          0.19642087	          0.06489890	          0.09251866	          0.13697158	          0.08197329	          0.05006215	          0.06952358	          0.19397271	          0.17030290	          0.12699679	          0.15108542	          0.05000026	          0.05000509	          0.10552455	          0.22001528	          0.16770841	          0.12730631	          0.05000005	          0.05000006	          0.37274334	          0.09664522	          0.13198820	          0.05000013	          0.13530246	          0.14528733	          0.11965040	          0.05055752	          0.05000228	          0.05000008	          0.05000001	          0.05895730	          0.05323613	          0.58857040	          0.42450116	          0.21790327	          0.63504428	          0.63850107	          0.33158022	          0.07679711	          0.08971104	          0.06951926	          0.30634635	          0.06951883	          0.05000009	          0.35422483	          0.13494762	          0.06951943	          0.05000231	          0.05000012	          0.05000011	          0.05000015	          0.06952082	          0.13111942	          0.10216646	          0.05000171	          0.05000083	          0.05000041	          0.25273134	          0.07327266	          0.05000038	          0.05000096	          0.05000058	          0.05000040	          0.23560213	          0.50429512	          0.05000008	          0.05000050	          0.05000031	          0.13401756	          0.08130736	          0.13438649	          0.12562139	          0.20243569	          0.27225890	          0.19274075	          0.17824289	          0.17759848	          0.23496710	          0.05000003	          0.09532847	          0.18426404	          0.05000011	          0.05000042	          0.05000015	          0.07550038	          0.05000002	          0.05000001	
